<svg xmlns="http://www.w3.org/2000/svg" viewBox="0 0 4800 4800" width="1000px" height="1000px">
  <g fill="none" stroke="currentColor" stroke-width="200">
    <path d="M1350 3937a1693 1693 0 0 0 1050 363c396.3 0 761 -135.6 1050 -363M1900 974.7C1205.1 1188.2 700 1835.1 700 2600c0 192.5 32 377.5 91 550M2900 974.7c694.9 213.5 1200 860.4 1200 1625.3 0 192.5 -32 377.5 -91 550"/>
    <path stroke-linecap="round" stroke-linejoin="round" d="M4300 3600c0 134.2 -52.8 256 -138.8 345.8A500 500 0 1 1 4300 3600m-2800 0c0 134.2 -52.8 256 -138.8 345.8A500 500 0 1 1 1500 3600m1400 -2700c0 134.2 -52.8 256 -138.8 345.8A500 500 0 1 1 2900 900"/>
  </g>
</svg>
